<mxfile host="65bd71144e">
    <diagram id="avxS-uuHOEhD4Ylot0DV" name="Page-1">
        <mxGraphModel dx="1912" dy="904" grid="1" gridSize="10" guides="1" tooltips="1" connect="1" arrows="1" fold="1" page="1" pageScale="1" pageWidth="850" pageHeight="1100" math="0" shadow="0">
            <root>
                <mxCell id="0"/>
                <mxCell id="1" parent="0"/>
                <mxCell id="2" value="extension.ts" style="shape=umlLifeline;perimeter=lifelinePerimeter;whiteSpace=wrap;html=1;container=1;collapsible=0;recursiveResize=0;outlineConnect=0;" vertex="1" parent="1">
                    <mxGeometry x="225" y="120" width="100" height="300" as="geometry"/>
                </mxCell>
                <mxCell id="3" value="" style="html=1;points=[];perimeter=orthogonalPerimeter;" vertex="1" parent="2">
                    <mxGeometry x="45" y="200" width="10" height="80" as="geometry"/>
                </mxCell>
                <mxCell id="4" value="" style="html=1;points=[];perimeter=orthogonalPerimeter;" vertex="1" parent="2">
                    <mxGeometry x="45" y="60" width="10" height="30" as="geometry"/>
                </mxCell>
                <mxCell id="5" value="vs code" style="shape=umlLifeline;perimeter=lifelinePerimeter;whiteSpace=wrap;html=1;container=1;collapsible=0;recursiveResize=0;outlineConnect=0;" vertex="1" parent="1">
                    <mxGeometry x="20" y="120" width="100" height="300" as="geometry"/>
                </mxCell>
                <mxCell id="6" value="" style="html=1;points=[];perimeter=orthogonalPerimeter;" vertex="1" parent="5">
                    <mxGeometry x="45" y="200" width="10" height="80" as="geometry"/>
                </mxCell>
                <mxCell id="7" value="" style="html=1;points=[];perimeter=orthogonalPerimeter;" vertex="1" parent="5">
                    <mxGeometry x="45" y="60" width="10" height="30" as="geometry"/>
                </mxCell>
                <mxCell id="8" value="Инициализация расширений" style="html=1;verticalAlign=bottom;endArrow=block;entryX=0;entryY=0;" edge="1" parent="1" source="7" target="4">
                    <mxGeometry relative="1" as="geometry">
                        <mxPoint x="125" y="180" as="sourcePoint"/>
                    </mxGeometry>
                </mxCell>
                <mxCell id="9" value="Команда добавления &lt;br&gt;обработчика файлов&amp;nbsp;.smpl.dssh" style="html=1;verticalAlign=bottom;endArrow=open;dashed=1;endSize=8;exitX=0;exitY=0.95;" edge="1" parent="1" source="4" target="7">
                    <mxGeometry relative="1" as="geometry">
                        <mxPoint x="200" y="256" as="targetPoint"/>
                        <mxPoint as="offset"/>
                    </mxGeometry>
                </mxCell>
                <mxCell id="10" value="(начало работы)" style="html=1;verticalAlign=bottom;endArrow=block;startArrow=oval;startFill=1;" edge="1" parent="1" target="7">
                    <mxGeometry relative="1" as="geometry">
                        <mxPoint x="-40" y="180" as="sourcePoint"/>
                        <mxPoint x="280" y="190" as="targetPoint"/>
                    </mxGeometry>
                </mxCell>
                <mxCell id="11" value="Первое открытие &lt;br&gt;файла&amp;nbsp;.smpl.dssh" style="html=1;verticalAlign=bottom;startArrow=oval;endArrow=block;startSize=8;" edge="1" parent="1" target="6">
                    <mxGeometry relative="1" as="geometry">
                        <mxPoint x="-40" y="320" as="sourcePoint"/>
                        <mxPoint x="270" y="310" as="targetPoint"/>
                    </mxGeometry>
                </mxCell>
                <mxCell id="12" value="Активация расширения" style="html=1;verticalAlign=bottom;endArrow=block;" edge="1" parent="1" source="6" target="3">
                    <mxGeometry relative="1" as="geometry">
                        <mxPoint x="85.00000000000023" y="190" as="sourcePoint"/>
                        <mxPoint x="280" y="190" as="targetPoint"/>
                        <Array as="points">
                            <mxPoint x="170" y="320"/>
                        </Array>
                    </mxGeometry>
                </mxCell>
                <mxCell id="13" value="Языковой сервер" style="shape=umlLifeline;perimeter=lifelinePerimeter;whiteSpace=wrap;html=1;container=1;collapsible=0;recursiveResize=0;outlineConnect=0;" vertex="1" parent="1">
                    <mxGeometry x="390" y="120" width="100" height="300" as="geometry"/>
                </mxCell>
                <mxCell id="14" value="" style="html=1;points=[];perimeter=orthogonalPerimeter;" vertex="1" parent="13">
                    <mxGeometry x="45" y="200" width="10" height="40" as="geometry"/>
                </mxCell>
                <mxCell id="15" value="Команда запуска" style="html=1;verticalAlign=bottom;endArrow=block;" edge="1" parent="1" source="3" target="14">
                    <mxGeometry relative="1" as="geometry">
                        <mxPoint x="85.00000000000023" y="330" as="sourcePoint"/>
                        <mxPoint x="280" y="330" as="targetPoint"/>
                        <Array as="points">
                            <mxPoint x="360" y="320"/>
                        </Array>
                    </mxGeometry>
                </mxCell>
                <mxCell id="16" value="Сообщение об успешном&lt;br&gt;запуске" style="html=1;verticalAlign=bottom;endArrow=open;dashed=1;endSize=8;" edge="1" parent="1" source="14" target="3">
                    <mxGeometry relative="1" as="geometry">
                        <mxPoint x="85.00000000000023" y="218.5000000000001" as="targetPoint"/>
                        <mxPoint x="280" y="218.5000000000001" as="sourcePoint"/>
                        <Array as="points">
                            <mxPoint x="360" y="360"/>
                        </Array>
                        <mxPoint as="offset"/>
                    </mxGeometry>
                </mxCell>
                <mxCell id="17" value="Возврат управления&lt;br&gt;(сигнал успешной активации)" style="html=1;verticalAlign=bottom;endArrow=open;dashed=1;endSize=8;" edge="1" parent="1" source="3" target="6">
                    <mxGeometry relative="1" as="geometry">
                        <mxPoint x="290" y="370" as="targetPoint"/>
                        <mxPoint x="445" y="370" as="sourcePoint"/>
                        <Array as="points">
                            <mxPoint x="160" y="400"/>
                        </Array>
                        <mxPoint as="offset"/>
                    </mxGeometry>
                </mxCell>
            </root>
        </mxGraphModel>
    </diagram>
</mxfile>